<svg xmlns="http://www.w3.org/2000/svg" viewBox="0 0 900 160" preserveAspectRatio="xMidYMax slice">
  <defs>
    <linearGradient id="sky" x2="0" y2="1"><stop stop-color="#d9f0fb"/><stop offset=".6" stop-color="#eef9fe"/><stop offset="1" stop-color="#f9feff"/></linearGradient>
    <radialGradient id="sun" cx="690" cy="34" r="150" gradientUnits="userSpaceOnUse"><stop stop-color="#fffbe6"/><stop offset=".25" stop-color="#fff5d4" stop-opacity=".55"/><stop offset="1" stop-color="#fff" stop-opacity="0"/></radialGradient>
    <linearGradient id="far" x2="0" y2="1"><stop stop-color="#cfe6ee"/><stop offset="1" stop-color="#b6d6e1"/></linearGradient>
    <linearGradient id="mid" x2="0" y2="1"><stop stop-color="#a3cad7"/><stop offset="1" stop-color="#83b5c4"/></linearGradient>
    <linearGradient id="ridge" x2="0" y2="1"><stop stop-color="#86bdaa"/><stop offset="1" stop-color="#63a28c"/></linearGradient>
    <linearGradient id="hillA" x2="0" y2="1"><stop stop-color="#b3dd92"/><stop offset="1" stop-color="#7cbf82"/></linearGradient>
    <linearGradient id="hillB" x2="0" y2="1"><stop stop-color="#86c784"/><stop offset="1" stop-color="#529f69"/></linearGradient>
    <linearGradient id="meadow" x2="0" y2="1"><stop stop-color="#55aa70"/><stop offset="1" stop-color="#358456"/></linearGradient>
    <linearGradient id="front" x2="0" y2="1"><stop stop-color="#3d8d5e"/><stop offset="1" stop-color="#276a47"/></linearGradient>
    <linearGradient id="lake" x2="0" y2="1"><stop stop-color="#cdeaf2"/><stop offset="1" stop-color="#94c9d9"/></linearGradient>
    <linearGradient id="cloud" x2="0" y2="1"><stop stop-color="#fff"/><stop offset="1" stop-color="#e3f1f8"/></linearGradient>
    <g id="blade"><path d="M0 0 1.1-2.2.5-1 .2-27H-.2L-.5-1-1.1-2.2Z"/></g>
    <g id="tree"><rect x="-.7" y="-2" width="1.4" height="5" fill="#5b4a36"/><circle r="4.2" cy="-4.5" fill="#2f7d52"/><circle r="3" cx="-1.6" cy="-6" fill="#3c9160"/><circle r="1.6" cx="1.4" cy="-6.6" fill="#57a877"/></g>
    <g id="pine"><rect x="-.5" y="-1" width="1" height="3" fill="#5b4a36"/><path d="M0-12 4-1H-4Z" fill="#2a7049"/><path d="M0-12 4-1H0Z" fill="#225f3e"/></g>
    <g id="sheep"><ellipse rx="2.1" ry="1.3" fill="#fbfbf6"/><circle cx="2" cy="-.4" r=".7" fill="#3b3f3a"/></g>
  </defs>
  <style>.spin{animation:spin 9s linear infinite;transform-origin:0 0}.s2{animation-duration:7s}.s3{animation-duration:12s}@keyframes spin{to{transform:rotate(360deg)}}@media (prefers-reduced-motion:reduce){.spin{animation:none}}</style>

  <rect width="900" height="160" fill="url(#sky)"/>
  <rect width="900" height="160" fill="url(#sun)"/>
  <circle cx="690" cy="34" r="11" fill="#fff8dc" opacity=".9"/>

  <g opacity=".75" fill="#fff"><rect x="40" y="18" width="120" height="2.2" rx="1.1"/><rect x="70" y="23" width="80" height="1.6" rx=".8"/><rect x="760" y="14" width="110" height="2" rx="1"/><rect x="740" y="19" width="70" height="1.4" rx=".7"/></g>
  <g fill="url(#cloud)">
    <path d="M86 44c3-9 15-12 22-6 4-9 18-10 24-1 8-3 17 3 16 11H78c-2-4 2-7 8-4Z"/>
    <path d="M455 30c3-7 12-9 18-4 4-8 16-9 21 0 7-2 14 3 13 9H448c-2-3 2-6 7-5Z"/>
    <path d="M790 50c2-6 10-8 15-3 3-6 13-6 16 1 6-2 11 2 10 7H785c-2-3 1-5 5-5Z"/>
    <path d="M262 22c2-4 8-5 11-2 2-4 9-4 11 1 4-1 8 2 7 5H259c-1-2 1-4 3-4Z"/>
  </g>
  <g fill="#d6e9f2" opacity=".8"><path d="M78 52h70c-4 3-62 3-70 0Z"/><path d="M448 39h52c-3 2-46 2-52 0Z"/><path d="M785 57h41c-3 2-37 2-41 0Z"/></g>
  <g fill="none" stroke="#5b7f8a" stroke-width=".9" stroke-linecap="round"><path d="M372 30q3-3 6 0 3-3 6 0"/><path d="M388 24q2-2 4 0 2-2 4 0"/><path d="M560 44q2.5-2.5 5 0 2.5-2.5 5 0"/></g>

  <path fill="url(#far)" d="M0 92 38 76l30 9 44-27 36 20 46-26 40 22 48-18 44 21 46-15 42 20 52-31 48 24 46-17 44 19 52-25 50 22 42-14 52 20V160H0Z"/>
  <g fill="#e9f5f9" opacity=".85"><path d="m112 58 8 5-4 1-4-3-3 2-3-1Z"/><path d="m194 52 8 6-4 1-4-3-4 2-3-1Z"/><path d="m496 51 9 6-4 1-5-3-4 3-3-1Z"/><path d="m726 60 7 5-3 1-4-3-3 2-3-1Z"/></g>
  <path fill="url(#mid)" d="M0 104 50 86l36 10 52-24 50 22 54-18 50 22 48-20 56 24 54-26 56 24 46-16 52 20 58-26 58 22 40-12V160H0Z"/>
  <g fill="#6f9fae" opacity=".55"><path d="m138 72 50 22-22 4Z"/><path d="m338 76 56 24-26 3Z"/><path d="m448 74 56 24-22 3Z"/><path d="m656 76 58 22-26 4Z"/></g>
  <path fill="url(#ridge)" d="M0 112c56-12 104-15 164-7s116 13 180 3 116-16 188-6 128 14 196 2 110-10 172-4V160H0Z"/>

  <path fill="url(#hillA)" d="M0 120c78-14 164-16 248-8s168 13 258 3 174-13 266-4 102 8 128 5V160H0Z"/>
  <g fill="#c6e59c" opacity=".9"><path d="M60 116l46-6 34 4-40 6Z"/><path d="M300 117l52-4 38 5-48 5Z"/><path d="M600 110l44-4 40 4-42 5Z"/><path d="M796 112l44-3 34 5-40 4Z"/></g>
  <g fill="#9fd07f" opacity=".85"><path d="M150 114l44-3 30 5-40 4Z"/><path d="M430 116l40-4 30 5-38 4Z"/><path d="M700 108l38-2 30 5-36 3Z"/></g>
  <g fill="none" stroke="#4f9a66" stroke-width="1" stroke-linecap="round" opacity=".7"><path d="M40 121c30-4 60-8 100-7"/><path d="M226 116c26 2 54 3 86 1"/><path d="M392 119c30-3 56-5 90-3"/><path d="M560 112c26-2 52-3 82-1"/><path d="M750 111c30 1 64 3 96 1"/></g>

  <path fill="url(#hillB)" d="M0 132c90-12 190-16 290-8s176 12 268 4 180-14 272-5c30 3 52 5 70 4V160H0Z"/>
  <g fill="#9bd28a" opacity=".75"><path d="M90 128l58-5 42 5-52 6Z"/><path d="M620 124l60-5 46 5-56 6Z"/></g>
  <g fill="none" stroke="#3f8a5a" stroke-width="1.2" stroke-linecap="round" opacity=".75"><path d="M20 134c48-6 96-9 150-8"/><path d="M250 129c40 2 80 3 124 0"/><path d="M590 126c44-4 90-5 140-2"/><path d="M780 124c34 1 70 3 104 1"/></g>

  <path fill="url(#lake)" d="M430 132c22-6 70-7 102-3 12 2 14 7-2 9-34 4-78 3-100-1-10-2-10-4 0-5Z"/>
  <g fill="none" stroke="#fff" stroke-width=".8" stroke-linecap="round" opacity=".8"><path d="M448 134h26"/><path d="M486 136h22"/><path d="M462 138h18"/></g>

  <g transform="translate(700 121)"><rect x="-9" y="-8" width="18" height="10" fill="#fbfbf7"/><rect x="-9" y="-8" width="18" height="10" fill="none" stroke="#d9dcd6" stroke-width=".6"/><path d="M-11-7 0-15 11-7Z" fill="#a9503d"/><path d="M0-15 11-7H6Z" fill="#8c3f30"/><rect x="-6" y="-5" width="3" height="3" fill="#5f8fa3"/><rect x="3" y="-5" width="3" height="3" fill="#5f8fa3"/><rect x="-1.2" y="-4" width="2.4" height="6" fill="#6a5140"/><rect x="5" y="-17" width="2" height="5" fill="#8c3f30"/></g>
  <g transform="translate(724 124)"><rect x="-6" y="-6" width="12" height="7" fill="#f2efe6"/><path d="M-7.5-5.5 0-11 7.5-5.5Z" fill="#6f7f89"/><rect x="-1.5" y="-3.5" width="3" height="4.5" fill="#8a6a4f"/></g>
  <path fill="none" stroke="#efe6cc" stroke-width="3" stroke-linecap="round" d="M640 160c14-10 28-18 40-24s18-7 22-10"/>
  <path fill="none" stroke="#d8cda9" stroke-width=".7" stroke-dasharray="2 3" d="M640 160c14-10 28-18 40-24s18-7 22-10"/>

  <g>
    <use href="#pine" x="36" y="128"/><use href="#pine" x="44" y="130"/><use href="#tree" x="110" y="126"/><use href="#tree" x="120" y="127"/>
    <use href="#tree" x="226" y="122"/><use href="#tree" x="236" y="123"/><use href="#pine" x="300" y="124"/>
    <use href="#tree" x="410" y="129"/><use href="#tree" x="419" y="130"/><use href="#pine" x="560" y="126"/><use href="#pine" x="567" y="127"/>
    <use href="#tree" x="632" y="122"/><use href="#tree" x="642" y="123"/><use href="#tree" x="742" y="122"/>
    <use href="#tree" x="874" y="124"/><use href="#tree" x="884" y="125"/><use href="#pine" x="860" y="123"/>
  </g>

  <g fill="#6c8f97">
    <path d="M204.4 98 204.8 73h.6l.4 25Z"/><rect x="203.2" y="71.6" width="4" height="2" rx=".8"/>
    <g transform="translate(205 72.5) scale(.5)"><g class="spin s3"><use href="#blade"/><use href="#blade" transform="rotate(120)"/><use href="#blade" transform="rotate(240)"/></g></g>
    <path d="M769.3 100 769.8 71h.6l.5 29Z"/><rect x="768" y="69.4" width="4.4" height="2.2" rx=".8"/>
    <g transform="translate(770 70.5) scale(.56)"><g class="spin"><use href="#blade"/><use href="#blade" transform="rotate(120)"/><use href="#blade" transform="rotate(240)"/></g></g>
    <path d="M859.4 104 859.8 77h.5l.4 27Z"/><rect x="858.2" y="75.6" width="3.8" height="2" rx=".8"/>
    <g transform="translate(860 76.5) scale(.42)"><g class="spin s2"><use href="#blade"/><use href="#blade" transform="rotate(120)"/><use href="#blade" transform="rotate(240)"/></g></g>
  </g>
  <g fill="#2c5b63">
    <path d="M328.4 112 329.3 47h1.4l.9 65Z"/><rect x="327" y="44.4" width="7.4" height="3.4" rx="1.2"/>
    <g transform="translate(330 46)"><g class="spin"><use href="#blade"/><use href="#blade" transform="rotate(120)"/><use href="#blade" transform="rotate(240)"/></g></g>
    <circle cx="330" cy="46" r="1.7" fill="#e8f2f4"/>
    <path d="M478.2 110 479.2 39h1.6l1 71Z"/><rect x="476.6" y="36.2" width="8.2" height="3.8" rx="1.3"/>
    <g transform="translate(480 38) scale(1.12)"><g class="spin s2"><use href="#blade"/><use href="#blade" transform="rotate(120)"/><use href="#blade" transform="rotate(240)"/></g></g>
    <circle cx="480" cy="38" r="1.9" fill="#e8f2f4"/>
    <path d="M608.8 114 609.5 58h1l.7 56Z"/><rect x="607.4" y="55.8" width="6.4" height="3" rx="1.1"/>
    <g transform="translate(610 57.5) scale(.82)"><g class="spin s3"><use href="#blade"/><use href="#blade" transform="rotate(120)"/><use href="#blade" transform="rotate(240)"/></g></g>
    <circle cx="610" cy="57.5" r="1.4" fill="#e8f2f4"/>
  </g>

  <path fill="url(#meadow)" d="M0 144c120-10 250-12 380-6s250 10 370 1c60-4 110-5 150-3V160H0Z"/>
  <g><use href="#sheep" x="170" y="146"/><use href="#sheep" x="182" y="148"/><use href="#sheep" x="176" y="143"/><use href="#sheep" x="522" y="147"/><use href="#sheep" x="534" y="145"/></g>
  <g fill="none" stroke="#2f7a4f" stroke-width="1.1" stroke-linecap="round" opacity=".7"><path d="M60 146c40-3 84-4 130-3"/><path d="M420 144c40 1 84 2 124 0"/><path d="M780 141c30 0 64 1 96 0"/></g>
  <path fill="url(#front)" d="M0 153c150-6 320-5 470-1s290 5 430-2V160H0Z"/>
  <g fill="none" stroke="#4f9f6b" stroke-width="1" stroke-linecap="round"><path d="M28 154l2-5 2 5M96 155l1.5-4 1.5 4M250 154l2-5 2 5M362 155l1.5-4 1.5 4M598 154l2-5 2 5M702 155l1.5-4 1.5 4M842 153l2-5 2 5"/></g>
  <g><circle cx="140" cy="152" r="1" fill="#fbe38a"/><circle cx="146" cy="154" r=".9" fill="#fff"/><circle cx="310" cy="151" r="1" fill="#fbe38a"/><circle cx="660" cy="153" r=".9" fill="#fff"/><circle cx="668" cy="151" r="1" fill="#fbe38a"/><circle cx="812" cy="152" r="1" fill="#fff"/></g>
</svg>
