<svg xmlns="http://www.w3.org/2000/svg" viewBox="0 0 900 160" preserveAspectRatio="xMidYMax slice">
  <defs>
    <linearGradient id="sky" x2="0" y2="1"><stop stop-color="#d9f0fb"/><stop offset=".6" stop-color="#eef9fe"/><stop offset="1" stop-color="#f9feff"/></linearGradient>
    <radialGradient id="sun" cx="720" cy="34" r="150" gradientUnits="userSpaceOnUse"><stop stop-color="#fffbe6"/><stop offset=".25" stop-color="#fff5d4" stop-opacity=".55"/><stop offset="1" stop-color="#fff" stop-opacity="0"/></radialGradient>
    <linearGradient id="far" x2="0" y2="1"><stop stop-color="#cfe6ee"/><stop offset="1" stop-color="#b6d6e1"/></linearGradient>
    <linearGradient id="mid" x2="0" y2="1"><stop stop-color="#a3cad7"/><stop offset="1" stop-color="#83b5c4"/></linearGradient>
    <linearGradient id="ridge" x2="0" y2="1"><stop stop-color="#86bdaa"/><stop offset="1" stop-color="#63a28c"/></linearGradient>
    <linearGradient id="hillA" x2="0" y2="1"><stop stop-color="#b3dd92"/><stop offset="1" stop-color="#7cbf82"/></linearGradient>
    <linearGradient id="hillB" x2="0" y2="1"><stop stop-color="#86c784"/><stop offset="1" stop-color="#529f69"/></linearGradient>
    <linearGradient id="meadow" x2="0" y2="1"><stop stop-color="#55aa70"/><stop offset="1" stop-color="#358456"/></linearGradient>
    <linearGradient id="front" x2="0" y2="1"><stop stop-color="#3d8d5e"/><stop offset="1" stop-color="#276a47"/></linearGradient>
    <linearGradient id="water" x2="0" y2="1"><stop stop-color="#cdeaf2"/><stop offset="1" stop-color="#94c9d9"/></linearGradient>
    <linearGradient id="sea" x2="0" y2="1"><stop stop-color="#a9d8e6"/><stop offset="1" stop-color="#5fa8c2"/></linearGradient>
    <linearGradient id="cloud" x2="0" y2="1"><stop stop-color="#fff"/><stop offset="1" stop-color="#e3f1f8"/></linearGradient>
    <linearGradient id="storm" x2="0" y2="1"><stop stop-color="#e9f1f5"/><stop offset="1" stop-color="#b9cbd4"/></linearGradient>
    <linearGradient id="panel" x2="1" y2="1"><stop stop-color="#3d6f9e"/><stop offset="1" stop-color="#1f4a73"/></linearGradient>
    <g id="blade"><path d="M0 0 1.1-2.2.5-1 .2-27H-.2L-.5-1-1.1-2.2Z"/></g>
    <g id="tree"><rect x="-.7" y="-2" width="1.4" height="5" fill="#5b4a36"/><circle r="4.2" cy="-4.5" fill="#2f7d52"/><circle r="3" cx="-1.6" cy="-6" fill="#3c9160"/><circle r="1.6" cx="1.4" cy="-6.6" fill="#57a877"/></g>
    <g id="pine"><rect x="-.5" y="-1" width="1" height="3" fill="#5b4a36"/><path d="M0-12 4-1H-4Z" fill="#2a7049"/><path d="M0-12 4-1H0Z" fill="#225f3e"/></g>
    <g id="sheep"><ellipse rx="2.1" ry="1.3" fill="#fbfbf6"/><circle cx="2" cy="-.4" r=".7" fill="#3b3f3a"/></g>
    <g id="panelrow"><path d="M0 0h11l-2 5H-2Z" fill="url(#panel)"/><path d="M3.6 0 2.4 5M7.3 0 6.1 5M-1 2.5h11" stroke="#8fb6d8" stroke-width=".35"/><path d="M1 5v2M8 5v2" stroke="#6c7a80" stroke-width=".6"/></g>
  </defs>
  <style>.spin{animation:spin 9s linear infinite;transform-origin:0 0}.s2{animation-duration:7s}.s3{animation-duration:12s}@keyframes spin{to{transform:rotate(360deg)}}@media (prefers-reduced-motion:reduce){.spin{animation:none}}</style>
  <rect width="900" height="160" fill="url(#sky)"/><rect width="900" height="160" fill="url(#sun)"/><circle cx="720" cy="34" r="11" fill="#fff8dc" opacity=".9"/>
  <g transform="translate(110 40) scale(0.9)"><path fill="url(#cloud)" d="M8 0c3-9 15-12 22-6 4-9 18-10 24-1 8-3 17 3 16 11H0c-2-4 2-7 8-4Z"/><path fill="#d6e9f2" opacity=".8" d="M0 8h70c-4 3-62 3-70 0Z"/></g><g transform="translate(460 24) scale(0.75)"><path fill="url(#cloud)" d="M8 0c3-9 15-12 22-6 4-9 18-10 24-1 8-3 17 3 16 11H0c-2-4 2-7 8-4Z"/><path fill="#d6e9f2" opacity=".8" d="M0 8h70c-4 3-62 3-70 0Z"/></g><g transform="translate(780 48) scale(0.6)"><path fill="url(#cloud)" d="M8 0c3-9 15-12 22-6 4-9 18-10 24-1 8-3 17 3 16 11H0c-2-4 2-7 8-4Z"/><path fill="#d6e9f2" opacity=".8" d="M0 8h70c-4 3-62 3-70 0Z"/></g><g fill="none" stroke="#5b7f8a" stroke-width=".9" stroke-linecap="round"><path d="M560 40q2.5 -2.5 5.0 0 2.5 -2.5 5.0 0"/><path d="M580 34q2 -2 4 0 2 -2 4 0"/></g>
  <path fill="url(#far)" d="M0 92 38 76l30 9 44-27 36 20 46-26 40 22 48-18 44 21 46-15 42 20 52-31 48 24 46-17 44 19 52-25 50 22 42-14 52 20V160H0Z"/><g fill="#e9f5f9" opacity=".85"><path d="m112 58 8 5-4 1-4-3-3 2-3-1Z"/><path d="m194 52 8 6-4 1-4-3-4 2-3-1Z"/><path d="m496 51 9 6-4 1-5-3-4 3-3-1Z"/><path d="m726 60 7 5-3 1-4-3-3 2-3-1Z"/></g>
  <path fill="url(#mid)" d="M0 104 50 86l36 10 52-24 50 22 54-18 50 22 48-20 56 24 54-26 56 24 46-16 52 20 58-26 58 22 40-12V160H0Z"/><g fill="#6f9fae" opacity=".55"><path d="m138 72 50 22-22 4Z"/><path d="m338 76 56 24-26 3Z"/><path d="m448 74 56 24-22 3Z"/><path d="m656 76 58 22-26 4Z"/></g>
  <path fill="url(#ridge)" d="M0 112c56-12 104-15 164-7s116 13 180 3 116-16 188-6 128 14 196 2 110-10 172-4V160H0Z"/>
  <path fill="url(#hillA)" d="M0 120c78-14 164-16 248-8s168 13 258 3 174-13 266-4 102 8 128 5V160H0Z"/><g fill="#c6e59c" opacity=".9"><path d="M60 116l46-6 34 4-40 6Z"/><path d="M300 117l52-4 38 5-48 5Z"/><path d="M600 110l44-4 40 4-42 5Z"/></g><g fill="none" stroke="#4f9a66" stroke-width="1" stroke-linecap="round" opacity=".7"><path d="M40 121c30-4 60-8 100-7"/><path d="M226 116c26 2 54 3 86 1"/><path d="M560 112c26-2 52-3 82-1"/></g>
  <path fill="url(#hillB)" d="M0 132c90-12 190-16 290-8s176 12 268 4 180-14 272-5c30 3 52 5 70 4V160H0Z"/><g fill="none" stroke="#3f8a5a" stroke-width="1.2" stroke-linecap="round" opacity=".75"><path d="M20 134c48-6 96-9 150-8"/><path d="M250 129c40 2 80 3 124 0"/></g>
  <path fill="#4f7881" d="M249.1 112 249.6 75.0h0.8l0.5 37.0Z"/><rect fill="#4f7881" x="248.0" y="73.1" width="4.1" height="1.9" rx="0.7"/><g transform="translate(250 74) scale(0.55)"><g class="spin s3" fill="#4f7881"><use href="#blade"/><use href="#blade" transform="rotate(120)"/><use href="#blade" transform="rotate(240)"/></g></g><path fill="#2c5b63" d="M558.6 110 559.4 57.0h1.3l0.8 53.0Z"/><rect fill="#2c5b63" x="556.7" y="54.5" width="6.7" height="3.1" rx="1.1"/><g transform="translate(560 56) scale(0.9)"><g class="spin s2" fill="#2c5b63"><use href="#blade"/><use href="#blade" transform="rotate(120)"/><use href="#blade" transform="rotate(240)"/></g></g><circle cx="560" cy="56" r="1.5" fill="#e8f2f4"/><path fill="#4f7881" d="M819.2 108 819.6 77.0h0.7l0.5 31.0Z"/><rect fill="#4f7881" x="818.1" y="75.2" width="3.7" height="1.7" rx="0.6"/><g transform="translate(820 76) scale(0.5)"><g class="spin " fill="#4f7881"><use href="#blade"/><use href="#blade" transform="rotate(120)"/><use href="#blade" transform="rotate(240)"/></g></g><use href="#tree" x="150" y="124"/><use href="#tree" x="160" y="125"/><use href="#tree" x="660" y="121"/><use href="#tree" x="670" y="122"/><use href="#tree" x="770" y="124"/><use href="#pine" x="190" y="126"/><use href="#pine" x="720" y="123"/><use href="#pine" x="728" y="124"/>
  <path fill="url(#meadow)" d="M0 144c120-10 250-12 380-6s250 10 370 1c60-4 110-5 150-3V160H0Z"/>
  <path fill="#8e9da3" d="M0 147c150-5 300-5 460-2s300 4 440-1v5c-140 4-290 4-440 1S150 150 0 152Z"/><path fill="none" stroke="#f4f1e4" stroke-width=".8" stroke-dasharray="6 6" d="M0 149.6c150-5 300-5 460-2s300 4 440-1"/><g transform="translate(360 143)"><path fill="#e9eef0" d="M-4-24h118l-5 4H1Z"/><path fill="url(#panel)" d="M0-28h110l-6 4H-4Z"/><path d="M22-28 18-24M44-28 40-24M66-28 62-24M88-28 84-24" stroke="#8fb6d8" stroke-width=".5"/><g fill="#cfd8dc"><rect x="4" y="-20" width="2" height="20"/><rect x="52" y="-20" width="2" height="20"/><rect x="100" y="-20" width="2" height="20"/></g><g transform="translate(20 0)"><rect x="-2.6" y="-11" width="5.2" height="11" rx="1" fill="#fbfbf7"/><rect x="-1.8" y="-9.6" width="3.6" height="4" rx=".6" fill="#16453a"/><path d="M.4-9 -.9-7.2h1.1L-.3-5.6 1.1-7.6H0Z" fill="#6ef0b2"/><path d="M2.6-5c4 0 5 2 5 5" fill="none" stroke="#27343a" stroke-width=".7"/></g><g transform="translate(68 0)"><rect x="-2.6" y="-11" width="5.2" height="11" rx="1" fill="#fbfbf7"/><rect x="-1.8" y="-9.6" width="3.6" height="4" rx=".6" fill="#16453a"/><path d="M.4-9 -.9-7.2h1.1L-.3-5.6 1.1-7.6H0Z" fill="#6ef0b2"/><path d="M2.6-5c4 0 5 2 5 5" fill="none" stroke="#27343a" stroke-width=".7"/></g><g transform="translate(34 0) scale(1.0)"><path fill="#e9f3f6" d="M-10 0v-3.5c0-1.2.8-2 2-2.3l3-.6 2.6-2.8c.5-.5 1.1-.8 1.8-.8h4.8c.8 0 1.5.4 1.9 1l2 2.6 2.6.5c1.1.3 1.3 1 1.3 2V0Z"/><path fill="#cfe7f2" d="M-4.2-6 -2-8.3h3.1v2.3Zm6 0V-8.3h2.5L6.2-6Z"/><circle cx="-5.6" r="1.9" fill="#26343a"/><circle cx="5.8" r="1.9" fill="#26343a"/><circle cx="-5.6" r=".8" fill="#9aa8ad"/><circle cx="5.8" r=".8" fill="#9aa8ad"/></g><g transform="translate(82 0) scale(1.0)"><path fill="#3b8f8a" d="M-10 0v-3.5c0-1.2.8-2 2-2.3l3-.6 2.6-2.8c.5-.5 1.1-.8 1.8-.8h4.8c.8 0 1.5.4 1.9 1l2 2.6 2.6.5c1.1.3 1.3 1 1.3 2V0Z"/><path fill="#cfe7f2" d="M-4.2-6 -2-8.3h3.1v2.3Zm6 0V-8.3h2.5L6.2-6Z"/><circle cx="-5.6" r="1.9" fill="#26343a"/><circle cx="5.8" r="1.9" fill="#26343a"/><circle cx="-5.6" r=".8" fill="#9aa8ad"/><circle cx="5.8" r=".8" fill="#9aa8ad"/></g></g><g transform="translate(496 143)"><rect x="-1" y="-15" width="26" height="15" fill="#fbfbf7"/><path fill="#6f7f89" d="M-3-15 12-21 27-15Z"/><rect x="3" y="-10" width="7" height="10" fill="#bfe3ee"/><rect x="14" y="-10" width="7" height="6" fill="#bfe3ee"/><rect x="7" y="-20" width="10" height="4" rx="1" fill="#0c9b6a"/><path d="M12.6-19.4 11-17.8h1.3L11.6-16.4 13.4-18.2h-1.3Z" fill="#fff"/></g><g stroke="#5f7479" stroke-width=".8" fill="none"><path d="M340 143v-18h5M620 144v-18h-5"/></g><circle cx="345" cy="125" r="1.2" fill="#fff4c2"/><circle cx="615" cy="126" r="1.2" fill="#fff4c2"/>
  <path fill="url(#front)" d="M0 153c150-6 320-5 470-1s290 5 430-2V160H0Z"/><g fill="none" stroke="#4f9f6b" stroke-width="1" stroke-linecap="round"><path d="M28 154l2-5 2 5M96 155l1.5-4 1.5 4M250 154l2-5 2 5M362 155l1.5-4 1.5 4M598 154l2-5 2 5M702 155l1.5-4 1.5 4M842 153l2-5 2 5"/></g><g><circle cx="140" cy="152" r="1" fill="#fbe38a"/><circle cx="146" cy="154" r=".9" fill="#fff"/><circle cx="310" cy="151" r="1" fill="#fbe38a"/><circle cx="660" cy="153" r=".9" fill="#fff"/><circle cx="668" cy="151" r="1" fill="#fbe38a"/><circle cx="812" cy="152" r="1" fill="#fff"/></g>
</svg>
